<svg id="eBu9326Qkie1" xmlns="http://www.w3.org/2000/svg" xmlns:xlink="http://www.w3.org/1999/xlink" viewBox="0 0 1258 1280" shape-rendering="geometricPrecision" text-rendering="geometricPrecision"><g transform="matrix(.1 0 0-.1 0 1280)"><path d="M5500,12797c-3-3-78-12-166-21-312-32-576-107-850-241-253-124-470-279-669-479-208-209-354-415-485-681-91-185-136-302-180-470-91-349-110-676-59-1027c36-254,95-444,215-697c36-74,60-139,56-143-5-5-22-4-38,2-50,20-255,68-364,87-149,25-606,26-764,0-590-95-1064-339-1467-754-331-342-551-748-655-1204-44-195-79-505-71-626c44-673,258-1198,680-1664c392-433,929-715,1537-806c149-22,530-22,670,0c52,8,101,12,107,8c9-5-11-42-62-121-192-294-318-614-374-956-60-358-45-714,45-1069C2858,934,3699,176,4710,36c308-42,341-44,542-21c398,46,669,123,979,281c241,123,450,275,650,474c246,245,448,550,572,865c58,147,114,362,133,512c12,96,22,96,94,1c94-122,337-361,470-460c362-269,766-433,1215-493c156-21,489-22,640-1c581,79,1080,321,1476,716c218,218,369,427,499,693c481,984,284,2161-491,2924-180,177-342,298-570,426-62,34-111,66-111,71c0,6,58,31,129,58c458,171,831,452,1130,852c304,407,475,903,510,1481c10,159-39,510-101,738-200,725-719,1329-1404,1636-691,309-1520,289-2201-53-218-110-399-235-594-411-60-53-111-95-114-92-3,4-9,79-14,169-13,240-33,370-91,566-265,906-1034,1603-1959,1776-190,35-582,70-599,53Zm438-1068c367-40,721-182,1017-408c85-64,256-232,328-321c93-116,174-243,243-385c158-321,223-650,196-996-7-85-21-194-31-244-24-110-87-307-103-316-6-4-43,4-82,17-290,99-670,153-996,141-439-17-818-112-1200-303-286-143-504-299-736-526-77-76-145-138-150-138-12,0-197,189-251,255-127,157-273,419-337,604-208,599-92,1304,302,1829c78,104,260,291,357,367c418,326,939,479,1443,424Zm3925-1544c526-78,996-361,1318-794c540-725,532-1706-19-2421-273-354-726-641-1156-732-82-17-137-21-298-22-130-1-201,3-208,10-6,6-15,89-20,200-15,308-53,522-145,800-142,434-375,812-700,1139-218,219-451,390-730,537-116,61-139,77-137,93c6,31,114,252,162,330c60,99,139,195,250,304c311,305,704,496,1155,560c104,15,416,12,528-4ZM3425,8526c192-40,430-129,610-227c106-58,260-163,263-181c2-8-24-53-57-99-273-380-442-811-518-1315-25-171-25-612,0-774c53-337,138-604,288-904c43-87,77-162,74-166-8-13-155-97-230-131-177-80-374-134-580-159-129-16-418-8-545,15-628,113-1170,521-1450,1090-306,624-271,1343,94,1933c307,495,846,847,1421,926c162,23,185,24,355,20c116-2,185-9,275-28Zm3373-277c755-83,1391-603,1631-1335c301-916-123-1924-984-2339-1034-499-2268-5-2669,1067-46,124-81,262-102,408-25,173-15,470,21,640c37,174,87,321,166,479c112,226,219,371,406,552c408,394,975,589,1531,528ZM9616,6025c203-35,387-94,589-189c219-104,349-193,507-349c438-434,650-1047,573-1662-55-441-257-856-570-1170-612-614-1539-768-2310-383-390,195-689,499-876,893-61,129-134,337-126,359c3,7,27,19,54,26c93,26,259,92,398,159c566,273,1029,727,1315,1291c149,294,244,595,287,904c8,61,16,117,19,124c5,16,32,15,140-3ZM4218,4649c262-350,537-606,869-807c563-342,1281-490,1903-392c74,12,156,24,181,27l46,5l11-44c43-168,60-409,42-588-27-280-75-462-179-675-284-581-824-981-1476-1096-168-29-474-32-630-5-670,113-1218,518-1505,1111-139,287-201,556-201,870c0,186,12,293,51,462c89,376,311,757,573,983c100,86,258,201,272,197c6-2,25-23,43-48Z" fill="#f50606"/></g></svg>
